<svg width="16" height="16" viewBox="0 0 16 16" fill="none" xmlns="http://www.w3.org/2000/svg">
<path fill-rule="evenodd" clip-rule="evenodd" d="M0 4C0 2.34315 1.34315 1 3 1H13C14.6569 1 16 2.34315 16 4V7H0V4ZM4 4C4 4.55228 3.55228 5 3 5C2.44772 5 2 4.55228 2 4C2 3.44772 2.44772 3 3 3C3.55228 3 4 3.44772 4 4ZM6 5C6.55228 5 7 4.55228 7 4C7 3.44772 6.55228 3 6 3C5.44772 3 5 3.44772 5 4C5 4.55228 5.44772 5 6 5ZM10 4C10 4.55228 9.55229 5 9 5C8.44771 5 8 4.55228 8 4C8 3.44772 8.44771 3 9 3C9.55229 3 10 3.44772 10 4Z" fill="#58585C"/>
<path d="M0 9V12C0 13.6569 1.34315 15 3 15H13C14.6569 15 16 13.6569 16 12V9H0Z" fill="#58585C"/>
</svg>
