<svg width="16" height="16" viewBox="0 0 16 16" fill="none" xmlns="http://www.w3.org/2000/svg">
<path fill-rule="evenodd" clip-rule="evenodd" d="M3.21922 4L3.46175 3.02986C3.90692 1.24919 5.50685 0 7.34232 0H8.65766C10.4931 0 12.0931 1.24919 12.5382 3.02986L12.7808 4H14C15.1046 4 16.0502 4.92023 15.716 5.97303C14.7868 8.90019 11.6842 10 7.99999 10C4.56306 10 1.63233 9.04288 0.5 6.53797C0.418535 6.35775 0.346378 6.16949 0.284012 5.97303C-0.0501957 4.92023 0.895437 4 2.00001 4H3.21922ZM5.40204 3.51493C5.62462 2.62459 6.42459 2 7.34232 2H8.65766C9.5754 2 10.3754 2.62459 10.5979 3.51493L10.7192 4H5.28077L5.40204 3.51493Z" fill="#58585C"/>
<path d="M7.99999 12C10.6207 12 13.4995 11.4688 15.5 9.78512V13C15.5 14.6569 14.1569 16 12.5 16H3.5C1.84315 16 0.5 14.6569 0.5 13V9.78514C2.50054 11.4688 5.37933 12 7.99999 12Z" fill="#58585C"/>
</svg>
