<svg width="16" height="16" viewBox="0 0 16 16" fill="none" xmlns="http://www.w3.org/2000/svg">
<path d="M8 9.5C8.82843 9.5 9.5 8.82843 9.5 8C9.5 7.17157 8.82843 6.5 8 6.5C7.17157 6.5 6.5 7.17157 6.5 8C6.5 8.82843 7.17157 9.5 8 9.5Z" fill="#58585C"/>
<path fill-rule="evenodd" clip-rule="evenodd" d="M16 8C16 12.4183 12.4183 16 8 16C3.58172 16 0 12.4183 0 8C0 3.58172 3.58172 0 8 0C12.4183 0 16 3.58172 16 8ZM11.3831 3.40425C12.1155 3.22115 12.7789 3.88455 12.5958 4.61693L11.4366 9.25375C11.1679 10.3286 10.3286 11.1679 9.25373 11.4366L4.6169 12.5957C3.88452 12.7788 3.22113 12.1154 3.40423 11.3831L4.56343 6.74627C4.83215 5.67142 5.6714 4.83217 6.74625 4.56346L11.3831 3.40425Z" fill="#58585C"/>
</svg>
