<svg width="24" height="24" viewBox="0 0 24 24" fill="none" xmlns="http://www.w3.org/2000/svg">
<path d="M13.4135 10.546L18.7168 5.24268" stroke="white" stroke-linecap="round" stroke-linejoin="round"/>
<circle cx="13.0605" cy="10.8994" r="1" transform="rotate(45 13.0605 10.8994)" fill="white"/>
<path fill-rule="evenodd" clip-rule="evenodd" d="M12.3529 15.8495C13.8567 16.0632 15.4391 15.5917 16.5958 14.435C19.4242 11.6066 19.4242 4.53553 19.4242 4.53553C19.4242 4.53553 12.3531 4.53553 9.52471 7.36396C8.36801 8.52066 7.89652 10.1031 8.11024 11.6069L5.98918 13.7279L10.2318 17.9706L12.3529 15.8495Z" fill="url(#paint0_linear)"/>
<path d="M12.3529 15.8495L12.4584 15.107C12.2249 15.0738 11.9893 15.1524 11.8225 15.3192L12.3529 15.8495ZM19.4242 4.53553L20.1742 4.53553C20.1742 4.12132 19.8384 3.78553 19.4242 3.78553L19.4242 4.53553ZM8.11024 11.6069L8.64057 12.1372C8.80736 11.9704 8.88597 11.7349 8.85278 11.5013L8.11024 11.6069ZM5.98918 13.7279L5.45885 13.1976C5.16595 13.4905 5.16595 13.9654 5.45885 14.2583L5.98918 13.7279ZM10.2318 17.9706L9.70149 18.5009C9.99438 18.7938 10.4693 18.7938 10.7621 18.5009L10.2318 17.9706ZM16.0654 13.9047C15.0826 14.8875 13.7387 15.2889 12.4584 15.107L12.2473 16.592C13.9746 16.8375 15.7956 16.2959 17.1261 14.9654L16.0654 13.9047ZM19.4242 4.53553C18.6742 4.53553 18.6742 4.53541 18.6742 4.53532C18.6742 4.53533 18.6742 4.53526 18.6742 4.53527C18.6742 4.53529 18.6742 4.53541 18.6742 4.53564C18.6742 4.53611 18.6742 4.53699 18.6742 4.5383C18.6742 4.5409 18.6742 4.54519 18.6741 4.5511C18.6741 4.56292 18.6739 4.58126 18.6736 4.60577C18.6729 4.65479 18.6716 4.72848 18.669 4.82407C18.6637 5.01532 18.653 5.29387 18.6315 5.6378C18.5884 6.32679 18.5023 7.27248 18.3309 8.30132C17.9793 10.4108 17.2985 12.6716 16.0654 13.9047L17.1261 14.9654C18.7215 13.37 19.4549 10.6811 19.8104 8.54792C19.9925 7.45544 20.0832 6.45658 20.1286 5.73137C20.1512 5.36819 20.1627 5.07222 20.1684 4.86572C20.1713 4.76244 20.1727 4.68144 20.1735 4.6255C20.1738 4.59753 20.174 4.57582 20.1741 4.56071C20.1742 4.55316 20.1742 4.54725 20.1742 4.54304C20.1742 4.54094 20.1742 4.53926 20.1742 4.538C20.1742 4.53738 20.1742 4.53686 20.1742 4.53644C20.1742 4.53624 20.1742 4.53601 20.1742 4.53591C20.1742 4.53571 20.1742 4.53553 19.4242 4.53553ZM10.055 7.89429C11.2881 6.66121 13.549 5.98046 15.6584 5.62888C16.6873 5.45741 17.6329 5.37133 18.3219 5.32827C18.6659 5.30677 18.9444 5.29608 19.1357 5.29077C19.2313 5.28811 19.3049 5.2868 19.354 5.28616C19.3785 5.28584 19.3968 5.28568 19.4086 5.2856C19.4146 5.28557 19.4188 5.28555 19.4214 5.28554C19.4227 5.28554 19.4236 5.28554 19.4241 5.28553C19.4243 5.28553 19.4245 5.28553 19.4245 5.28553C19.4245 5.28553 19.4244 5.28553 19.4244 5.28553C19.4243 5.28553 19.4242 5.28553 19.4242 4.53553C19.4242 3.78553 19.424 3.78553 19.4238 3.78553C19.4237 3.78553 19.4235 3.78553 19.4233 3.78553C19.4229 3.78553 19.4224 3.78554 19.4217 3.78554C19.4205 3.78554 19.4188 3.78554 19.4167 3.78555C19.4125 3.78556 19.4066 3.78559 19.399 3.78564C19.3839 3.78573 19.3622 3.78592 19.3342 3.78629C19.2783 3.78703 19.1973 3.78848 19.094 3.79135C18.8875 3.79708 18.5915 3.80849 18.2284 3.83119C17.5032 3.87651 16.5043 3.96721 15.4118 4.14929C13.2786 4.50482 10.5897 5.23828 8.99438 6.83363L10.055 7.89429ZM8.85278 11.5013C8.67082 10.221 9.07219 8.87714 10.055 7.89429L8.99438 6.83363C7.66384 8.16418 7.12222 9.98515 7.3677 11.7124L8.85278 11.5013ZM6.51951 14.2583L8.64057 12.1372L7.57991 11.0765L5.45885 13.1976L6.51951 14.2583ZM10.7621 17.4402L6.51951 13.1976L5.45885 14.2583L9.70149 18.5009L10.7621 17.4402ZM11.8225 15.3192L9.70149 17.4402L10.7621 18.5009L12.8832 16.3798L11.8225 15.3192Z" fill="white"/>
<rect x="5.28223" y="13.0209" width="8" height="5" transform="rotate(45 5.28223 13.0209)" stroke="white" stroke-width="1.5" stroke-linejoin="round"/>
<defs>
<linearGradient id="paint0_linear" x1="15.8887" y1="1" x2="11.1703" y2="16.7937" gradientUnits="userSpaceOnUse">
<stop stop-color="white" stop-opacity="0.1"/>
<stop offset="0.479167" stop-color="white" stop-opacity="0.3"/>
<stop offset="1" stop-color="white" stop-opacity="0.1"/>
</linearGradient>
</defs>
</svg>
