<svg width="24" height="24" viewBox="0 0 24 24" fill="none" xmlns="http://www.w3.org/2000/svg">
<path d="M4 5C4 3.89543 4.89543 3 6 3H18C19.1046 3 20 3.89543 20 5V14H4V5Z" fill="url(#paint0_linear)" stroke="white" stroke-width="1.5"/>
<path d="M4 14H20L22.4026 19.6061C22.6854 20.2659 22.2014 21 21.4835 21H2.51654C1.79862 21 1.31459 20.2659 1.59739 19.6061L4 14Z" stroke="white" stroke-width="1.5"/>
<path d="M9 19C9 18.4477 9.44772 18 10 18H14C14.5523 18 15 18.4477 15 19V21H9V19Z" fill="white"/>
<defs>
<linearGradient id="paint0_linear" x1="4" y1="3" x2="7.99317" y2="17.3428" gradientUnits="userSpaceOnUse">
<stop stop-color="white" stop-opacity="0.1"/>
<stop offset="0.479167" stop-color="white" stop-opacity="0.3"/>
<stop offset="1" stop-color="white" stop-opacity="0.1"/>
</linearGradient>
</defs>
</svg>
