<svg width="16" height="16" viewBox="0 0 16 16" fill="none" xmlns="http://www.w3.org/2000/svg">
<path fill-rule="evenodd" clip-rule="evenodd" d="M0.850532 6.58336C0.323504 7.50566 0.323504 8.6379 0.850532 9.56019L3.13625 13.5602C3.67037 14.4949 4.6644 15.0718 5.74098 15.0718H10.259C11.3356 15.0718 12.3296 14.4949 12.8638 13.5602L15.1495 9.56019C15.6765 8.6379 15.6765 7.50566 15.1495 6.58336L12.8638 2.58336C12.3296 1.64864 11.3356 1.07178 10.259 1.07178H5.74098C4.6644 1.07178 3.67037 1.64864 3.13625 2.58336L0.850532 6.58336ZM8.00001 11C9.65686 11 11 9.65685 11 8C11 6.34315 9.65686 5 8.00001 5C6.34315 5 5.00001 6.34315 5.00001 8C5.00001 9.65685 6.34315 11 8.00001 11Z" fill="#58585C"/>
</svg>
